<?xml version="1.0" encoding="UTF-8"?>
<svg id="Layer_2" data-name="Layer 2" xmlns="http://www.w3.org/2000/svg" viewBox="0 0 316.72 56.27">
  <defs>
    <style>
      .cls-1 {
        fill: #231f20;
      }

      .cls-1, .cls-2 {
        stroke-width: 0px;
      }

      .cls-2 {
        fill: #f37421;
      }
    </style>
  </defs>
  <g id="Layer_1-2" data-name="Layer 1">
    <g>
      <path class="cls-1" d="m26.52,34.23L0,21.71v-7.88L29.45,0l-1.78,9.12-17.27,8.67,17.86,7.61-1.74,8.84Z"/>
      <path class="cls-1" d="m35.43,9.12h4.85l-8.59,40.24h-4.8l8.54-40.24Z"/>
      <path class="cls-1" d="m48.7,9.12h4.85l-8.59,40.24h-4.8l8.54-40.24Z"/>
      <path class="cls-1" d="m52.03,46.31l16.12-7.07-16.12-7.07,1.56-8.18,24.96,11.29v7.88l-28.96,13.1,2.44-9.95Z"/>
    </g>
    <g>
      <path class="cls-2" d="m85.33,33.38V1.03h7.27v32.35h-7.27Zm5.98-13.07v-6.38h16.22v6.38h-16.22Zm14.93,13.07V1.03h7.27v32.35h-7.27Z"/>
      <path class="cls-2" d="m129.1,34.22c-2.13,0-4.02-.33-5.67-1-1.65-.66-3.05-1.57-4.19-2.73-1.14-1.15-2-2.47-2.59-3.97-.59-1.49-.89-3.06-.89-4.72v-1.02c0-1.68.3-3.29.91-4.81.61-1.52,1.49-2.86,2.66-4.01s2.58-2.06,4.23-2.73c1.65-.66,3.5-1,5.54-1s3.97.33,5.61,1c1.64.66,3.04,1.57,4.19,2.73,1.15,1.15,2.04,2.49,2.66,4.01.62,1.52.93,3.12.93,4.81v1.02c0,1.65-.3,3.23-.89,4.72-.59,1.49-1.46,2.81-2.59,3.97-1.14,1.15-2.53,2.06-4.19,2.73-1.65.67-3.56,1-5.72,1Zm0-5.98c1.39,0,2.54-.29,3.46-.89.92-.59,1.62-1.42,2.1-2.48.49-1.06.73-2.24.73-3.54,0-1.39-.25-2.61-.75-3.66-.5-1.05-1.22-1.88-2.15-2.5-.93-.62-2.06-.93-3.39-.93s-2.42.31-3.37.93c-.95.62-1.66,1.46-2.15,2.5-.49,1.05-.73,2.27-.73,3.66,0,1.3.24,2.48.71,3.54.47,1.06,1.18,1.89,2.13,2.48.94.59,2.08.89,3.41.89Z"/>
      <path class="cls-2" d="m146.03,33.38V9.09h5.63v10.46h-.4c0-2.48.31-4.55.93-6.2.62-1.65,1.55-2.9,2.79-3.74,1.24-.84,2.76-1.26,4.56-1.26h.31c1.83,0,3.36.42,4.59,1.26,1.23.84,2.16,2.09,2.79,3.74.63,1.65.95,3.72.95,6.2h-1.73c0-2.48.32-4.55.95-6.2.63-1.65,1.57-2.9,2.81-3.74,1.24-.84,2.76-1.26,4.56-1.26h.31c1.83,0,3.37.42,4.63,1.26,1.26.84,2.21,2.09,2.86,3.74.65,1.65.97,3.72.97,6.2v13.82h-7.09v-14.22c0-1.33-.35-2.41-1.04-3.23-.69-.83-1.68-1.24-2.95-1.24s-2.28.42-3.01,1.26c-.74.84-1.11,1.96-1.11,3.35v14.09h-7.13v-14.22c0-1.33-.35-2.41-1.04-3.23-.69-.83-1.66-1.24-2.9-1.24s-2.32.42-3.06,1.26c-.74.84-1.11,1.96-1.11,3.35v14.09h-7.09Z"/>
      <path class="cls-2" d="m199.29,34.22c-2.07,0-3.89-.35-5.47-1.06-1.58-.71-2.9-1.66-3.94-2.86-1.05-1.2-1.85-2.54-2.39-4.03-.55-1.49-.82-3.02-.82-4.59v-.89c0-1.62.27-3.18.82-4.67.55-1.49,1.34-2.83,2.37-4.01,1.03-1.18,2.33-2.12,3.88-2.81,1.55-.69,3.32-1.04,5.3-1.04,2.6,0,4.79.58,6.58,1.75,1.79,1.17,3.15,2.69,4.1,4.56.94,1.88,1.42,3.92,1.42,6.14v2.39h-21.49v-4.03h17.19l-2.3,1.86c0-1.45-.21-2.69-.62-3.72-.41-1.03-1.03-1.82-1.84-2.37-.81-.55-1.82-.82-3.04-.82s-2.29.28-3.15.84c-.86.56-1.51,1.38-1.95,2.46-.44,1.08-.67,2.4-.67,3.97,0,1.45.21,2.71.62,3.79.41,1.08,1.06,1.91,1.95,2.5.89.59,2.04.89,3.46.89,1.3,0,2.36-.25,3.19-.75.83-.5,1.39-1.12,1.68-1.86h6.51c-.35,1.62-1.05,3.07-2.08,4.34-1.03,1.27-2.33,2.26-3.9,2.97s-3.37,1.06-5.41,1.06Z"/>
      <path class="cls-1" d="m216.8,33.6V.76h7.09v32.83h-7.09Zm6.2-14.93v-4.34h6.38c1.39,0,2.39-.35,3.01-1.06s.93-1.65.93-2.84c0-1.24-.31-2.22-.93-2.92s-1.62-1.06-3.01-1.06h-6.38V.76h5.94c3.72,0,6.58.78,8.57,2.35,1.99,1.57,2.99,3.8,2.99,6.69v.67c0,2.01-.51,3.62-1.53,4.83-1.02,1.21-2.39,2.08-4.12,2.59-1.73.52-3.7.78-5.92.78h-5.94Zm0,14.93v-5.67h7.58c1.36,0,2.38-.35,3.06-1.06s1.02-1.71,1.02-3.01-.34-2.3-1.02-2.99c-.68-.69-1.7-1.04-3.06-1.04h-7.58v-4.39h7.22c2.24,0,4.24.27,5.98.82,1.74.55,3.12,1.43,4.12,2.64,1,1.21,1.51,2.85,1.51,4.92v.62c0,1.92-.44,3.57-1.33,4.94-.89,1.37-2.19,2.42-3.9,3.15-1.71.72-3.84,1.09-6.38,1.09h-7.22Z"/>
      <path class="cls-1" d="m252.56,34c-1.74,0-3.27-.31-4.59-.93-1.32-.62-2.34-1.51-3.08-2.68s-1.11-2.56-1.11-4.19c0-1.77.46-3.23,1.37-4.36.92-1.14,2.2-1.98,3.86-2.53,1.65-.55,3.56-.82,5.72-.82h5.18v3.94h-5.23c-1.24,0-2.19.3-2.86.91-.66.61-1,1.43-1,2.46,0,.98.33,1.77,1,2.37.67.61,1.62.91,2.86.91.8,0,1.51-.14,2.15-.42.63-.28,1.16-.76,1.57-1.44.41-.68.65-1.62.71-2.84l1.68,1.77c-.15,1.68-.55,3.1-1.22,4.25-.67,1.15-1.58,2.04-2.75,2.66-1.17.62-2.59.93-4.28.93Zm7.75-.62v-7.18h-1.2v-7.8c0-1.24-.3-2.17-.89-2.79-.59-.62-1.54-.93-2.84-.93-.65,0-1.51.02-2.57.04-1.06.03-2.16.07-3.28.13-1.12.06-2.14.12-3.06.18v-5.98c.68-.06,1.48-.12,2.39-.18.92-.06,1.86-.1,2.84-.13.97-.03,1.89-.04,2.75-.04,2.48,0,4.57.35,6.27,1.06,1.7.71,2.99,1.78,3.88,3.21.89,1.43,1.33,3.27,1.33,5.52v14.89h-5.63Z"/>
      <path class="cls-1" d="m279.76,34.13c-3.46,0-6.16-.71-8.11-2.13-1.95-1.42-2.98-3.41-3.1-5.98h6.29c.12.77.58,1.46,1.4,2.06.81.61,2.03.91,3.66.91,1.24,0,2.27-.21,3.08-.64.81-.43,1.22-1.04,1.22-1.84,0-.71-.31-1.28-.93-1.71-.62-.43-1.73-.73-3.32-.91l-1.91-.18c-2.92-.29-5.12-1.11-6.58-2.44-1.46-1.33-2.19-3.03-2.19-5.1,0-1.71.43-3.15,1.28-4.3.86-1.15,2.05-2.02,3.57-2.61,1.52-.59,3.26-.89,5.21-.89,3.13,0,5.66.69,7.58,2.06,1.92,1.37,2.92,3.36,3.01,5.96h-6.29c-.12-.8-.53-1.47-1.24-2.02-.71-.55-1.76-.82-3.15-.82-1.09,0-1.97.21-2.62.62-.65.41-.97.98-.97,1.68s.28,1.2.84,1.55,1.48.61,2.75.75l1.91.18c2.98.33,5.3,1.15,6.96,2.48,1.65,1.33,2.48,3.12,2.48,5.36,0,1.62-.44,3.04-1.33,4.23-.89,1.2-2.14,2.11-3.77,2.75-1.62.63-3.53.95-5.72.95Z"/>
      <path class="cls-1" d="m304.89,34.22c-2.07,0-3.89-.35-5.47-1.06s-2.89-1.66-3.94-2.86-1.85-2.54-2.39-4.03c-.55-1.49-.82-3.02-.82-4.59v-.89c0-1.62.27-3.18.82-4.67.55-1.49,1.34-2.83,2.37-4.01,1.03-1.18,2.33-2.12,3.88-2.81,1.55-.69,3.32-1.04,5.29-1.04,2.6,0,4.79.58,6.58,1.75,1.79,1.17,3.15,2.69,4.1,4.56.95,1.88,1.42,3.92,1.42,6.14v2.39h-21.49v-4.03h17.19l-2.3,1.86c0-1.45-.21-2.69-.62-3.72-.41-1.03-1.03-1.82-1.84-2.37-.81-.55-1.82-.82-3.04-.82s-2.29.28-3.15.84c-.86.56-1.51,1.38-1.95,2.46-.44,1.08-.67,2.4-.67,3.97,0,1.45.21,2.71.62,3.79.41,1.08,1.06,1.91,1.95,2.5.89.59,2.04.89,3.46.89,1.3,0,2.36-.25,3.19-.75.83-.5,1.39-1.12,1.68-1.86h6.51c-.35,1.62-1.05,3.07-2.08,4.34-1.04,1.27-2.33,2.26-3.9,2.97-1.57.71-3.37,1.06-5.41,1.06Z"/>
    </g>
  </g>
</svg>